# xmcd CD database file
#
# Track frame offsets:
#	150
#	14702
#	29369
#	43398
#	57924
#	71278
#	84132
#	95643
#	106787
#	118582
#	130057
#	141585
#	152561
#	163465
#	177208
#	187101
#	200856
#	212506
#	227358
#	247120
#	267319
#	279066
#	287015
#	297351
#
# Disc length: 4095 seconds
#
# Revision: 0
# Processed by: cddbd v1.5.1PL0 Copyright (c) Steve Scherf et al.
# Submitted via: CDex 1.51
#
DISCID=690ffd18
DTITLE=Various Artist - Texas Blues: Early Masters From the Lone Star State #C
DYEAR=2004
DGENRE=Blues
TTITLE0=Oscar Woods - Fence Breakin' Blues
TTITLE1=Oscar Woods - Home Wreckin' Blues
TTITLE2=Oscar Woods - Evil Hearted Woman Blues
TTITLE3=Oscar Woods - Lone Wolf Blues
TTITLE4=Oscar Woods - Don't Sell It (Don't Give It Away)
TTITLE5=Oscar Woods - Baton Rouge Rag
TTITLE6=Oscar Woods - Jam Session Blues
TTITLE7=Oscar Woods - Baton Rouge Rag
TTITLE8=Oscar Woods - Jam Session Blues
TTITLE9=Oscar Woods - Low Life Blues
TTITLE10=Oscar Woods - Token Blues
TTITLE11=Oscar Woods - Come On Over To My House Baby
TTITLE12=Oscar Woods - Look Here Baby, One Thing I Got To Say
TTITLE13=Oscar Woods - Sometimes I Get To Thinkin' (Take 1)
TTITLE14=Oscar Woods - Don't Sell It
TTITLE15=Oscar Woods - Sometimes I Get To Thinkin' (Take 2)
TTITLE16=Oscar Woods - Boll Weevil Blues
TTITLE17=Smith Casey - Shorty George
TTITLE18=Smith Casey - Santa Fe Blues
TTITLE19=Smith Casey - Hesitating Blues
TTITLE20=Smith Casey - Two White Horses Standing In Line
TTITLE21=Smith Casey - Jack O'Diamonds
TTITLE22=Smith Casey - Mournful Blues
TTITLE23=Smith Casey - East Texas Rag
EXTD=YEAR: 2004
EXTT0=
EXTT1=
EXTT2=
EXTT3=
EXTT4=
EXTT5=
EXTT6=
EXTT7=
EXTT8=
EXTT9=
EXTT10=
EXTT11=
EXTT12=
EXTT13=
EXTT14=
EXTT15=
EXTT16=
EXTT17=
EXTT18=
EXTT19=
EXTT20=
EXTT21=
EXTT22=
EXTT23=
PLAYORDER=
